<?xml version="1.0" standalone="no"?>
<!DOCTYPE svg PUBLIC "-//W3C//DTD SVG 20010904//EN"
 "http://www.w3.org/TR/2001/REC-SVG-20010904/DTD/svg10.dtd">
<svg version="1.0" xmlns="http://www.w3.org/2000/svg"
 width="300.000000pt" height="300.000000pt" viewBox="0 0 300.000000 300.000000"
 preserveAspectRatio="xMidYMid meet">

<g transform="translate(0.000000,300.000000) scale(0.100000,-0.100000)"
fill="#000000" stroke="none">
<path d="M1557 2233 c-11 -3 -16 -11 -13 -21 8 -24 104 -423 108 -446 3 -17
-10 -23 -85 -42 -117 -29 -146 -42 -143 -62 4 -21 14 -20 171 17 100 23 120
30 118 45 -3 38 -126 516 -132 515 -3 -1 -14 -3 -24 -6z"/>
<path d="M1735 1644 c-27 -9 -57 -23 -65 -31 -13 -14 -13 -15 3 -9 54 19 53
19 32 2 l-20 -17 20 5 c11 2 34 7 50 10 17 4 133 -7 260 -24 126 -16 235 -30
242 -30 27 0 11 -16 -35 -34 -65 -27 -416 -181 -474 -209 -26 -12 -48 -28 -48
-34 0 -7 -4 -13 -10 -13 -5 0 -10 -4 -10 -9 0 -11 30 -7 69 10 14 6 163 68
331 138 265 111 305 131 308 150 2 13 0 27 -5 32 -4 4 -125 22 -268 39 -143
16 -276 32 -295 35 -19 2 -57 -3 -85 -11z"/>
<path d="M1650 1229 c0 -5 5 -7 10 -4 6 3 10 8 10 11 0 2 -4 4 -10 4 -5 0 -10
-5 -10 -11z"/>
<path d="M823 1096 c-25 -21 -28 -31 -31 -100 -4 -72 -3 -76 17 -76 16 0 21 6
21 25 0 24 2 25 65 25 63 0 65 -1 65 -25 0 -16 6 -25 15 -25 12 0 15 18 15
100 l0 100 -69 0 c-59 0 -74 -4 -98 -24z m135 -48 l3 -38 -65 0 c-63 0 -66 1
-66 24 0 35 36 57 85 54 38 -3 40 -4 43 -40z"/>
<path d="M1040 1020 c0 -82 3 -100 15 -100 12 0 15 18 15 100 0 82 -3 100 -15
100 -12 0 -15 -18 -15 -100z"/>
<path d="M1126 1104 c-11 -11 -16 -35 -16 -83 0 -92 11 -101 118 -101 l82 0 0
60 0 60 -65 0 c-58 0 -65 -2 -65 -20 0 -17 7 -20 50 -20 43 0 50 -3 50 -20 0
-18 -7 -20 -65 -20 l-65 0 0 65 0 65 80 0 c64 0 80 3 80 15 0 22 -162 22 -184
-1z"/>
<path d="M1357 1113 c-4 -3 -7 -41 -7 -83 0 -100 10 -110 108 -110 65 0 72 2
72 20 0 18 -7 20 -70 20 l-70 0 0 65 0 65 70 0 c56 0 70 3 70 15 0 12 -16 15
-83 15 -46 0 -87 -3 -90 -7z"/>
<path d="M1570 1036 c0 -109 6 -116 106 -116 67 0 74 2 74 20 0 18 -7 20 -75
20 l-76 0 3 63 3 62 73 3 c55 2 72 6 72 17 0 12 -18 15 -90 15 l-90 0 0 -84z"/>
<path d="M1790 1020 c0 -82 3 -100 15 -100 12 0 15 18 15 100 0 82 -3 100 -15
100 -12 0 -15 -18 -15 -100z"/>
<path d="M1905 1080 c-21 -22 -45 -40 -52 -40 -7 0 -13 -9 -13 -20 0 -11 6
-20 13 -20 7 0 31 -18 52 -40 25 -26 48 -40 64 -40 24 0 22 3 -24 50 l-49 50
49 50 c46 47 48 50 24 50 -16 0 -39 -14 -64 -40z"/>
<path d="M2024 1095 c-19 -29 -12 -69 13 -81 10 -4 45 -10 78 -13 44 -4 60
-10 60 -21 0 -12 -18 -16 -80 -20 -66 -4 -80 -8 -83 -22 -3 -16 6 -18 81 -18
93 0 117 13 117 62 0 37 -25 52 -94 58 -53 4 -61 8 -61 25 0 18 8 20 68 23 51
2 67 6 67 17 0 12 -16 15 -75 15 -68 0 -76 -2 -91 -25z"/>
<path d="M1400 1020 c0 -19 5 -21 57 -18 46 2 59 7 61 21 3 15 -5 17 -57 17
-55 0 -61 -2 -61 -20z"/>
<path d="M1620 1020 c0 -18 7 -20 55 -20 48 0 55 2 55 20 0 18 -7 20 -55 20
-48 0 -55 -2 -55 -20z"/>
</g>
</svg>
